# xmcd
#
# Track frame offsets: 
#        150
#        23655
#        51330
#        72452
#        90575
#        113330
#        138990
#        157397
#        183312
#        201895
#        220920
#        235960
#        254432
#        278037
#        328740
#
# Disc length: 4693 seconds
#
# Revision: 2
# Processed by: cddbd v1.5.2PL0 Copyright (c) Steve Scherf et al.
# Submitted via: ExactAudioCopyFreeDBPlugin 1.0
#
DISCID=de12530f
DTITLE=Various Artist - Now The Music - Today's Blues
DYEAR=1997
DGENRE=Slow
TTITLE0=The Jeff Healey Band - Hoochie Coochie Man
TTITLE1=Gary Moore - Still Got The Blues
TTITLE2=Pat Benatar - True Love
TTITLE3=John Hammond - You Don't Love Me
TTITLE4=Coco Montoya - Someday After A While
TTITLE5=Buddy Guy - She's Nineteen Years Old
TTITLE6=Johnny Winter - You Lie Too Much
TTITLE7=Robben Ford and The Blue Line - I Just Want To Make Love To You
TTITLE8=Muskee - Brother Booze
TTITLE9=John Mayall - Wake Up Call
TTITLE10=Roy Rogers - Build For Comfort
TTITLE11=Rory Block - Lovin' Whiskey
TTITLE12=Walter Trout Band - Please Don't Go
TTITLE13=Duke Robillard Band - Dyin' Flu
TTITLE14=Albert Collins - T-Bone Shuffle
EXTD=
EXTT0=
EXTT1=
EXTT2=
EXTT3=
EXTT4=
EXTT5=
EXTT6=
EXTT7=
EXTT8=
EXTT9=
EXTT10=
EXTT11=
EXTT12=
EXTT13=
EXTT14=
PLAYORDER=
